<svg width="982px" height="728px" viewBox="0 0 982 728" xmlns="http://www.w3.org/2000/svg" xmlns:xlink="http://www.w3.org/1999/xlink"><g transform="matrix(1, 0, 0, 1, 0, 0)" clip-path="url(#mainClip3167)"><g transform="matrix(1, 0, 0, 1, 335, -659)"><g transform="matrix(1, 0, 0, 1, 446.0462724753814, 787.6341461006984)"><path d="M 4.401915995213642,87.86819881955478 L 3.5520229446817204,81.92869700520556 M 2.659635241623203,75.6922201001389 L 1.8097421910912814,69.75271828578968 M 1.2518198417715705,65.85366204103465 M 1.116866935136951,63.49629271717083 L 0.7739449068439535,57.5061003594488 M 0.4138767771363062,51.21639838384067 L 0.07095474884330882,45.22620602611864 M -6.689093723366568e-15,43.9867621899176 M 0.148743969324046,38.93042269842456 L 0.3251715822711311,32.93301715124086 M 0.5104205758655704,26.63574132669798 L 0.6440402432673527,22.093530948730443 L 0.8101524795420045,20.64721416957323 M 1.5289939049272854,14.38835908216706 L 2.2136047862466004,8.427544713208805 M 2.932446211631881,2.168689625802638 L 3.181524344942091,0" fill="none" stroke="black" stroke-width="2" stroke-linecap="butt" stroke-linejoin="miter" stroke-miterlimit="10" transform="matrix(1, 0, 0, 1, 9.71917723462502, 1.5837382411896606)"/><path d="M 0,1.5 A 1.5,1.5 0 0,1 1.4999999999999998,0 L 1.5,0 A 1.5,1.5 0 0,1 3,1.4999999999999996 L 3,1.5 A 1.5,1.5 0 0,1 1.5,3 L 1.5,3 A 1.5,1.5 0 0,1 0,1.5000000000000002 z" fill="transparent" stroke="none" transform="matrix(1, 0, 0, 1, 8.21917723462502, 44.07050043110728)"/><path d="M 0,1.5 A 1.5,1.5 0 0,1 1.4999999999999998,0 L 1.5,0 A 1.5,1.5 0 0,1 3,1.4999999999999996 L 3,1.5 A 1.5,1.5 0 0,1 1.5,3 L 1.5,3 A 1.5,1.5 0 0,1 0,1.5000000000000002 z" fill="none" stroke="transparent" stroke-width="2" stroke-linecap="butt" stroke-linejoin="miter" stroke-miterlimit="10" transform="matrix(1, 0, 0, 1, 8.21917723462502, 44.07050043110728)"/><path d="M 0,0 L 8,4.62 L 0,9.24 z" fill="white" stroke="none" transform="matrix(0.3093238752323552, -1.975934902827327, 1.975934902827327, 0.3093238752323552, 1.1426293890298407, 16.95010861164846)"/><path d="M 0,0 L 8,4.62 L 0,9.24 z" fill="none" stroke="black" stroke-width="1" stroke-linecap="butt" stroke-linejoin="miter" stroke-miterlimit="10" transform="matrix(0.3093238752323552, -1.975934902827327, 1.975934902827327, 0.3093238752323552, 1.1426293890298407, 16.95010861164846)"/></g><g transform="matrix(1, 0, 0, 1, -244.84777649922054, 1117.4855405774445)"><path d="M 356.36276937566936,0 C 234.10763230921137,111.31186018774338 126.10090627229408,113.21506240865847 0,6.279520165209988" fill="none" stroke="black" stroke-width="2" stroke-linecap="butt" stroke-linejoin="miter" stroke-miterlimit="10" transform="matrix(1, 0, 0, 1, 25.42234332726258, 5.274947865955518)"/><g transform="matrix(1, 0, 0, 1, 138.5458914672858, 69.25748386025751)"><g transform="matrix(1, 0, 0, 1, 0, 0)"><g transform="matrix(1, 0, 0, 1, 0, 0)"><path d="M 0,4 A 4,4 0 0,1 3.999999999999999,0 L 107,0 A 4,4 0 0,1 111,3.999999999999999 L 111,36 A 4,4 0 0,1 107,40 L 4,40 A 4,4 0 0,1 0,36 z" fill="white" stroke="none" transform="matrix(1, 0, 0, 1, 1, 1)"/><path d="M 0,4 A 4,4 0 0,1 3.999999999999999,0 L 107,0 A 4,4 0 0,1 111,3.999999999999999 L 111,36 A 4,4 0 0,1 107,40 L 4,40 A 4,4 0 0,1 0,36 z" fill="none" stroke="#373f47" stroke-width="2" stroke-linecap="butt" stroke-linejoin="miter" stroke-miterlimit="10" transform="matrix(1, 0, 0, 1, 1, 1)"/><text x="51" y="11.91708984375" style="font: 14px Roboto" text-anchor="middle" fill="black" stroke="none" transform="matrix(1, 0, 0, 1, 6.2999999999999945, 6.1821093750000005)">student city</text><g transform="matrix(1, 0, 0, 1, 0, 0)" clip-path="url(#CLIP3168)"><path d="M 0,0 L 110,0 L 110,9 A 5,5 0 0,1 105,14 L 5,14 A 5,5 0 0,1 0,9 z" fill="#aaccff" stroke="none" transform="matrix(1, 0, 0, 1, 1.4999999999999971, 26.499999999999996)"/><path d="M 0,0 L 110,0 L 110,9 A 5,5 0 0,1 105,14 L 5,14 A 5,5 0 0,1 0,9 z" fill="none" stroke="#373f47" stroke-width="1" stroke-linecap="butt" stroke-linejoin="miter" stroke-miterlimit="10" transform="matrix(1, 0, 0, 1, 1.4999999999999971, 26.499999999999996)"/></g><g transform="matrix(1, 0, 0, 1, 0, 0)" clip-path="url(#CLIP3169)"><text x="15" y="8.51220703125" style="font: 10px Roboto" text-anchor="middle" fill="black" stroke="none" transform="matrix(1, 0, 0, 1, 41.5, 28.919999999999998)">0</text></g></g></g></g><path d="M 0,0 L 8,4.62 L 0,9.24 z" fill="#000000" stroke="none" transform="matrix(-1.5253712870166782, -1.2935387264187657, 1.2935387264187657, -1.5253712870166782, 32.411850350849654, 29.596762551742067)"/><path d="M 0,0 L 8,4.62 L 0,9.24 z" fill="none" stroke="#000000" stroke-width="1" stroke-linecap="butt" stroke-linejoin="miter" stroke-miterlimit="10" transform="matrix(-1.5253712870166782, -1.2935387264187657, 1.2935387264187657, -1.5253712870166782, 32.411850350849654, 29.596762551742067)"/></g><g transform="matrix(1, 0, 0, 1, 92.66210075671921, 743.420460531338)"><path d="M 11.931733146079523,248.80881435068068 C -19.21114826432273,136.76528396395747 9.805888003562359,61.840697779716834 108.29121616050497,0" fill="none" stroke="black" stroke-width="2" stroke-linecap="butt" stroke-linejoin="miter" stroke-miterlimit="10" transform="matrix(1, 0, 0, 1, 62.999103934462084, 24.144898282221735)"/><g transform="matrix(1, 0, 0, 1, 0, 108.72324322993467)"><g transform="matrix(1, 0, 0, 1, 0, 0)"><g transform="matrix(1, 0, 0, 1, 0, 0)"><path d="M 0,4 A 4,4 0 0,1 3.999999999999999,0 L 123,0 A 4,4 0 0,1 127,3.999999999999999 L 127,36 A 4,4 0 0,1 123,40 L 4,40 A 4,4 0 0,1 0,36 z" fill="white" stroke="none" transform="matrix(1, 0, 0, 1, 1, 1)"/><path d="M 0,4 A 4,4 0 0,1 3.999999999999999,0 L 123,0 A 4,4 0 0,1 127,3.999999999999999 L 127,36 A 4,4 0 0,1 123,40 L 4,40 A 4,4 0 0,1 0,36 z" fill="none" stroke="#373f47" stroke-width="2" stroke-linecap="butt" stroke-linejoin="miter" stroke-miterlimit="10" transform="matrix(1, 0, 0, 1, 1, 1)"/><text x="59" y="11.91708984375" style="font: 14px Roboto" text-anchor="middle" fill="black" stroke="none" transform="matrix(1, 0, 0, 1, 6.2999999999999945, 6.1821093750000005)">student street</text><g transform="matrix(1, 0, 0, 1, 0, 0)" clip-path="url(#CLIP3170)"><path d="M 0,0 L 126,0 L 126,9 A 5,5 0 0,1 121,14 L 5,14 A 5,5 0 0,1 0,9 z" fill="#aaccff" stroke="none" transform="matrix(1, 0, 0, 1, 1.4999999999999971, 26.499999999999996)"/><path d="M 0,0 L 126,0 L 126,9 A 5,5 0 0,1 121,14 L 5,14 A 5,5 0 0,1 0,9 z" fill="none" stroke="#373f47" stroke-width="1" stroke-linecap="butt" stroke-linejoin="miter" stroke-miterlimit="10" transform="matrix(1, 0, 0, 1, 1.4999999999999971, 26.499999999999996)"/></g><g transform="matrix(1, 0, 0, 1, 0, 0)" clip-path="url(#CLIP3171)"><text x="15" y="8.51220703125" style="font: 10px Roboto" text-anchor="middle" fill="black" stroke="none" transform="matrix(1, 0, 0, 1, 49.5, 28.919999999999998)">0</text></g></g></g></g><path d="M 0,0 L 8,4.62 L 0,9.24 z" fill="#000000" stroke="none" transform="matrix(1.693771666101959, -1.0635495019556889, 1.0635495019556889, 1.693771666101959, 151.9796622340651, 25.35984395145404)"/><path d="M 0,0 L 8,4.62 L 0,9.24 z" fill="none" stroke="#000000" stroke-width="1" stroke-linecap="butt" stroke-linejoin="miter" stroke-miterlimit="10" transform="matrix(1.693771666101959, -1.0635495019556889, 1.0635495019556889, 1.693771666101959, 151.9796622340651, 25.35984395145404)"/></g><g transform="matrix(1, 0, 0, 1, -236.2230109589978, 1109.399298993683)"><path d="M 339.1031902345893,0 C 224.6319370004363,63.15464276633156 116.62521096351898,65.05784498724643 0,5.975386612063176" fill="none" stroke="black" stroke-width="2" stroke-linecap="butt" stroke-linejoin="miter" stroke-miterlimit="10" transform="matrix(1, 0, 0, 1, 25.206869450508695, 1)"/><g transform="matrix(1, 0, 0, 1, 125.06619871631557, 28.8266062340997)"><g transform="matrix(1, 0, 0, 1, 0, 0)"><g transform="matrix(1, 0, 0, 1, 0, 0)"><path d="M 0,4 A 4,4 0 0,1 3.999999999999999,0 L 115,0 A 4,4 0 0,1 119,3.999999999999999 L 119,36 A 4,4 0 0,1 115,40 L 4,40 A 4,4 0 0,1 0,36 z" fill="white" stroke="none" transform="matrix(1, 0, 0, 1, 1, 1)"/><path d="M 0,4 A 4,4 0 0,1 3.999999999999999,0 L 115,0 A 4,4 0 0,1 119,3.999999999999999 L 119,36 A 4,4 0 0,1 115,40 L 4,40 A 4,4 0 0,1 0,36 z" fill="none" stroke="#373f47" stroke-width="2" stroke-linecap="butt" stroke-linejoin="miter" stroke-miterlimit="10" transform="matrix(1, 0, 0, 1, 1, 1)"/><text x="55" y="11.91708984375" style="font: 14px Roboto" text-anchor="middle" fill="black" stroke="none" transform="matrix(1, 0, 0, 1, 6.2999999999999945, 6.1821093750000005)">workshop city</text><g transform="matrix(1, 0, 0, 1, 0, 0)" clip-path="url(#CLIP3172)"><path d="M 0,0 L 118,0 L 118,9 A 5,5 0 0,1 113,14 L 5,14 A 5,5 0 0,1 0,9 z" fill="#aaccff" stroke="none" transform="matrix(1, 0, 0, 1, 1.4999999999999971, 26.499999999999996)"/><path d="M 0,0 L 118,0 L 118,9 A 5,5 0 0,1 113,14 L 5,14 A 5,5 0 0,1 0,9 z" fill="none" stroke="#373f47" stroke-width="1" stroke-linecap="butt" stroke-linejoin="miter" stroke-miterlimit="10" transform="matrix(1, 0, 0, 1, 1.4999999999999971, 26.499999999999996)"/></g><g transform="matrix(1, 0, 0, 1, 0, 0)" clip-path="url(#CLIP3173)"><text x="15" y="8.51220703125" style="font: 10px Roboto" text-anchor="middle" fill="black" stroke="none" transform="matrix(1, 0, 0, 1, 45.5, 28.919999999999998)">0</text></g></g></g></g><path d="M 0,0 L 8,4.62 L 0,9.24 z" fill="#000000" stroke="none" transform="matrix(-1.7841187228157198, -0.9038364801768097, 0.9038364801768097, -1.7841187228157198, 36.196154056025456, 22.900625192974687)"/><path d="M 0,0 L 8,4.62 L 0,9.24 z" fill="none" stroke="#000000" stroke-width="1" stroke-linecap="butt" stroke-linejoin="miter" stroke-miterlimit="10" transform="matrix(-1.7841187228157198, -0.9038364801768097, 0.9038364801768097, -1.7841187228157198, 36.196154056025456, 22.900625192974687)"/></g><g transform="matrix(1, 0, 0, 1, -230.30363201784584, 1086.9160145364913)"><path d="M 326.02042191106756,0 C 217.35450332147303,21.268565983834378 109.34777728455575,23.17176820474924 0,5.744853249534117" fill="none" stroke="black" stroke-width="2" stroke-linecap="butt" stroke-linejoin="miter" stroke-miterlimit="10" transform="matrix(1, 0, 0, 1, 25.493555250550834, 4.569174021291051)"/><g transform="matrix(1, 0, 0, 1, 110.25946321669508, 0.9524059982016162)"><g transform="matrix(1, 0, 0, 1, 0, 0)"><g transform="matrix(1, 0, 0, 1, 0, 0)"><path d="M 0,4 A 4,4 0 0,1 3.999999999999999,0 L 131,0 A 4,4 0 0,1 135,3.999999999999999 L 135,36 A 4,4 0 0,1 131,40 L 4,40 A 4,4 0 0,1 0,36 z" fill="white" stroke="none" transform="matrix(1, 0, 0, 1, 1, 1)"/><path d="M 0,4 A 4,4 0 0,1 3.999999999999999,0 L 131,0 A 4,4 0 0,1 135,3.999999999999999 L 135,36 A 4,4 0 0,1 131,40 L 4,40 A 4,4 0 0,1 0,36 z" fill="none" stroke="#373f47" stroke-width="2" stroke-linecap="butt" stroke-linejoin="miter" stroke-miterlimit="10" transform="matrix(1, 0, 0, 1, 1, 1)"/><text x="63" y="11.91708984375" style="font: 14px Roboto" text-anchor="middle" fill="black" stroke="none" transform="matrix(1, 0, 0, 1, 6.300000000000009, 6.1821093750000005)">student address</text><g transform="matrix(1, 0, 0, 1, 0, 0)" clip-path="url(#CLIP3174)"><path d="M 0,0 L 134,0 L 134,9 A 5,5 0 0,1 129,14 L 5,14 A 5,5 0 0,1 0,9 z" fill="#aaccff" stroke="none" transform="matrix(1, 0, 0, 1, 1.5000000000000113, 26.499999999999996)"/><path d="M 0,0 L 134,0 L 134,9 A 5,5 0 0,1 129,14 L 5,14 A 5,5 0 0,1 0,9 z" fill="none" stroke="#373f47" stroke-width="1" stroke-linecap="butt" stroke-linejoin="miter" stroke-miterlimit="10" transform="matrix(1, 0, 0, 1, 1.5000000000000113, 26.499999999999996)"/></g><g transform="matrix(1, 0, 0, 1, 0, 0)" clip-path="url(#CLIP3175)"><text x="15" y="8.51220703125" style="font: 10px Roboto" text-anchor="middle" fill="black" stroke="none" transform="matrix(1, 0, 0, 1, 53.500000000000014, 28.919999999999998)">0</text></g></g></g></g><path d="M 0,0 L 8,4.62 L 0,9.24 z" fill="#000000" stroke="none" transform="matrix(-1.9750745610063067, -0.3147705171481995, 0.3147705171481995, -1.9750745610063067, 40.827449229879754, 22.114421138434)"/><path d="M 0,0 L 8,4.62 L 0,9.24 z" fill="none" stroke="#000000" stroke-width="1" stroke-linecap="butt" stroke-linejoin="miter" stroke-miterlimit="10" transform="matrix(-1.9750745610063067, -0.3147705171481995, 0.3147705171481995, -1.9750745610063067, 40.827449229879754, 22.114421138434)"/></g><g transform="matrix(1, 0, 0, 1, -230.13948881194185, 1036.4372008272871)"><path d="M 325.9743407929905,11.463749968688035 C 216.65371648473564,-5.73019130792909 108.64699044781834,-3.8269890870142262 0,17.207791216141686" fill="none" stroke="black" stroke-width="2" stroke-linecap="butt" stroke-linejoin="miter" stroke-miterlimit="10" transform="matrix(1, 0, 0, 1, 24.954485312710066, 21)"/><g transform="matrix(1, 0, 0, 1, 106.68904301154163, 0)"><g transform="matrix(1, 0, 0, 1, 0, 0)"><g transform="matrix(1, 0, 0, 1, 0, 0)"><path d="M 0,4 A 4,4 0 0,1 3.999999999999999,0 L 136,0 A 4,4 0 0,1 140,3.999999999999999 L 140,36 A 4,4 0 0,1 136,40 L 4,40 A 4,4 0 0,1 0,36 z" fill="white" stroke="none" transform="matrix(1, 0, 0, 1, 1, 1)"/><path d="M 0,4 A 4,4 0 0,1 3.999999999999999,0 L 136,0 A 4,4 0 0,1 140,3.999999999999999 L 140,36 A 4,4 0 0,1 136,40 L 4,40 A 4,4 0 0,1 0,36 z" fill="none" stroke="#373f47" stroke-width="2" stroke-linecap="butt" stroke-linejoin="miter" stroke-miterlimit="10" transform="matrix(1, 0, 0, 1, 1, 1)"/><text x="62.5" y="11.91708984375" style="font: 14px Roboto" text-anchor="middle" fill="black" stroke="none" transform="matrix(1, 0, 0, 1, 9.300000000000008, 6.1821093750000005)">student birth place</text><g transform="matrix(1, 0, 0, 1, 0, 0)" clip-path="url(#CLIP3176)"><path d="M 0,0 L 139,0 L 139,9 A 5,5 0 0,1 134,14 L 5,14 A 5,5 0 0,1 0,9 z" fill="#aaccff" stroke="none" transform="matrix(1, 0, 0, 1, 1.5000000000000113, 26.499999999999996)"/><path d="M 0,0 L 139,0 L 139,9 A 5,5 0 0,1 134,14 L 5,14 A 5,5 0 0,1 0,9 z" fill="none" stroke="#373f47" stroke-width="1" stroke-linecap="butt" stroke-linejoin="miter" stroke-miterlimit="10" transform="matrix(1, 0, 0, 1, 1.5000000000000113, 26.499999999999996)"/></g><g transform="matrix(1, 0, 0, 1, 0, 0)" clip-path="url(#CLIP3177)"><text x="15" y="8.51220703125" style="font: 10px Roboto" text-anchor="middle" fill="black" stroke="none" transform="matrix(1, 0, 0, 1, 56.000000000000014, 28.919999999999998)">0</text></g></g></g></g><path d="M 0,0 L 8,4.62 L 0,9.24 z" fill="#000000" stroke="none" transform="matrix(-1.9635383538697913, 0.38015409097142483, -0.38015409097142483, -1.9635383538697913, 43.40087322089127, 44.04802863776301)"/><path d="M 0,0 L 8,4.62 L 0,9.24 z" fill="none" stroke="#000000" stroke-width="1" stroke-linecap="butt" stroke-linejoin="miter" stroke-miterlimit="10" transform="matrix(-1.9635383538697913, 0.38015409097142483, -0.38015409097142483, -1.9635383538697913, 43.40087322089127, 44.04802863776301)"/></g><g transform="matrix(1, 0, 0, 1, -235.64395809886162, 985.8219319009198)"><path d="M 339.0870776356886,42.81876025232475 C 222.47068893534242,-16.220371642834948 114.46396289842511,-14.317169421920084 0,48.79386294194035" fill="none" stroke="black" stroke-width="2" stroke-linecap="butt" stroke-linejoin="miter" stroke-miterlimit="10" transform="matrix(1, 0, 0, 1, 23.565234144419133, 21)"/><g transform="matrix(1, 0, 0, 1, 111.30161328654303, 0)"><g transform="matrix(1, 0, 0, 1, 0, 0)"><g transform="matrix(1, 0, 0, 1, 0, 0)"><path d="M 0,4 A 4,4 0 0,1 3.999999999999999,0 L 136,0 A 4,4 0 0,1 140,3.999999999999999 L 140,36 A 4,4 0 0,1 136,40 L 4,40 A 4,4 0 0,1 0,36 z" fill="white" stroke="none" transform="matrix(1, 0, 0, 1, 1, 1)"/><path d="M 0,4 A 4,4 0 0,1 3.999999999999999,0 L 136,0 A 4,4 0 0,1 140,3.999999999999999 L 140,36 A 4,4 0 0,1 136,40 L 4,40 A 4,4 0 0,1 0,36 z" fill="none" stroke="#373f47" stroke-width="2" stroke-linecap="butt" stroke-linejoin="miter" stroke-miterlimit="10" transform="matrix(1, 0, 0, 1, 1, 1)"/><text x="62.5" y="11.91708984375" style="font: 14px Roboto" text-anchor="middle" fill="black" stroke="none" transform="matrix(1, 0, 0, 1, 9.300000000000008, 6.1821093750000005)">student address d...</text><g transform="matrix(1, 0, 0, 1, 0, 0)" clip-path="url(#CLIP3178)"><path d="M 0,0 L 139,0 L 139,9 A 5,5 0 0,1 134,14 L 5,14 A 5,5 0 0,1 0,9 z" fill="#aaccff" stroke="none" transform="matrix(1, 0, 0, 1, 1.5000000000000113, 26.499999999999996)"/><path d="M 0,0 L 139,0 L 139,9 A 5,5 0 0,1 134,14 L 5,14 A 5,5 0 0,1 0,9 z" fill="none" stroke="#373f47" stroke-width="1" stroke-linecap="butt" stroke-linejoin="miter" stroke-miterlimit="10" transform="matrix(1, 0, 0, 1, 1.5000000000000113, 26.499999999999996)"/></g><g transform="matrix(1, 0, 0, 1, 0, 0)" clip-path="url(#CLIP3179)"><text x="15" y="8.51220703125" style="font: 10px Roboto" text-anchor="middle" fill="black" stroke="none" transform="matrix(1, 0, 0, 1, 56.000000000000014, 28.919999999999998)">0</text></g></g></g></g><path d="M 0,0 L 8,4.62 L 0,9.24 z" fill="#000000" stroke="none" transform="matrix(-1.751423878324846, 0.9656678509889179, -0.9656678509889179, -1.751423878324846, 42.91372258174912, 69.67726452639533)"/><path d="M 0,0 L 8,4.62 L 0,9.24 z" fill="none" stroke="#000000" stroke-width="1" stroke-linecap="butt" stroke-linejoin="miter" stroke-miterlimit="10" transform="matrix(-1.751423878324846, 0.9656678509889179, -0.9656678509889179, -1.751423878324846, 42.91372258174912, 69.67726452639533)"/></g><g transform="matrix(1, 0, 0, 1, 238.26131305215938, 770.5377473410141)"><path d="M 0,247.2137702901855 C 94.63502536472458,184.79905578997887 123.65206163260973,109.87446960573834 95.74174918752851,0" fill="none" stroke="black" stroke-width="2" stroke-linecap="butt" stroke-linejoin="miter" stroke-miterlimit="10" transform="matrix(1, 0, 0, 1, 1, 25.461474868094783)"/><g transform="matrix(1, 0, 0, 1, 16.325376272441417, 145.86576817776188)"><g transform="matrix(1, 0, 0, 1, 0, 0)"><g transform="matrix(1, 0, 0, 1, 0, 0)"><path d="M 0,4 A 4,4 0 0,1 3.999999999999999,0 L 131,0 A 4,4 0 0,1 135,3.999999999999999 L 135,36 A 4,4 0 0,1 131,40 L 4,40 A 4,4 0 0,1 0,36 z" fill="white" stroke="none" transform="matrix(1, 0, 0, 1, 1, 1)"/><path d="M 0,4 A 4,4 0 0,1 3.999999999999999,0 L 131,0 A 4,4 0 0,1 135,3.999999999999999 L 135,36 A 4,4 0 0,1 131,40 L 4,40 A 4,4 0 0,1 0,36 z" fill="none" stroke="#373f47" stroke-width="2" stroke-linecap="butt" stroke-linejoin="miter" stroke-miterlimit="10" transform="matrix(1, 0, 0, 1, 1, 1)"/><text x="63" y="11.91708984375" style="font: 14px Roboto" text-anchor="middle" fill="black" stroke="none" transform="matrix(1, 0, 0, 1, 6.300000000000009, 6.1821093750000005)">workshop street</text><g transform="matrix(1, 0, 0, 1, 0, 0)" clip-path="url(#CLIP3180)"><path d="M 0,0 L 134,0 L 134,9 A 5,5 0 0,1 129,14 L 5,14 A 5,5 0 0,1 0,9 z" fill="#aaccff" stroke="none" transform="matrix(1, 0, 0, 1, 1.5000000000000113, 26.499999999999996)"/><path d="M 0,0 L 134,0 L 134,9 A 5,5 0 0,1 129,14 L 5,14 A 5,5 0 0,1 0,9 z" fill="none" stroke="#373f47" stroke-width="1" stroke-linecap="butt" stroke-linejoin="miter" stroke-miterlimit="10" transform="matrix(1, 0, 0, 1, 1.5000000000000113, 26.499999999999996)"/></g><g transform="matrix(1, 0, 0, 1, 0, 0)" clip-path="url(#CLIP3181)"><text x="15" y="8.51220703125" style="font: 10px Roboto" text-anchor="middle" fill="black" stroke="none" transform="matrix(1, 0, 0, 1, 53.500000000000014, 28.919999999999998)">0</text></g></g></g></g><path d="M 0,0 L 8,4.62 L 0,9.24 z" fill="#000000" stroke="none" transform="matrix(-0.49240191506732084, -1.9384376064341187, 1.9384376064341187, -0.49240191506732084, 91.97158372387511, 44.213091370395816)"/><path d="M 0,0 L 8,4.62 L 0,9.24 z" fill="none" stroke="#000000" stroke-width="1" stroke-linecap="butt" stroke-linejoin="miter" stroke-miterlimit="10" transform="matrix(-0.49240191506732084, -1.9384376064341187, 1.9384376064341187, -0.49240191506732084, 91.97158372387511, 44.213091370395816)"/></g><g transform="matrix(1, 0, 0, 1, -242.79854900410436, 937.1827929780102)"><path d="M 356.38905264403667,78.76201685285127 C 230.27361307601643,-28.25227061249143 122.26688703909912,-26.349068391576793 0,85.04200015935407" fill="none" stroke="black" stroke-width="2" stroke-linecap="butt" stroke-linejoin="miter" stroke-miterlimit="10" transform="matrix(1, 0, 0, 1, 21.84780773026422, 21)"/><g transform="matrix(1, 0, 0, 1, 136.09912685393712, 0)"><g transform="matrix(1, 0, 0, 1, 0, 0)"><g transform="matrix(1, 0, 0, 1, 0, 0)"><path d="M 0,4 A 4,4 0 0,1 3.999999999999999,0 L 99,0 A 4,4 0 0,1 103,3.999999999999999 L 103,36 A 4,4 0 0,1 99,40 L 4,40 A 4,4 0 0,1 0,36 z" fill="white" stroke="none" transform="matrix(1, 0, 0, 1, 1, 1)"/><path d="M 0,4 A 4,4 0 0,1 3.999999999999999,0 L 99,0 A 4,4 0 0,1 103,3.999999999999999 L 103,36 A 4,4 0 0,1 99,40 L 4,40 A 4,4 0 0,1 0,36 z" fill="none" stroke="#373f47" stroke-width="2" stroke-linecap="butt" stroke-linejoin="miter" stroke-miterlimit="10" transform="matrix(1, 0, 0, 1, 1, 1)"/><text x="47" y="11.91708984375" style="font: 14px Roboto" text-anchor="middle" fill="black" stroke="none" transform="matrix(1, 0, 0, 1, 6.2999999999999945, 6.1821093750000005)">birth place</text><g transform="matrix(1, 0, 0, 1, 0, 0)" clip-path="url(#CLIP3182)"><path d="M 0,0 L 102,0 L 102,9 A 5,5 0 0,1 97,14 L 5,14 A 5,5 0 0,1 0,9 z" fill="#aaccff" stroke="none" transform="matrix(1, 0, 0, 1, 1.4999999999999971, 26.499999999999996)"/><path d="M 0,0 L 102,0 L 102,9 A 5,5 0 0,1 97,14 L 5,14 A 5,5 0 0,1 0,9 z" fill="none" stroke="#373f47" stroke-width="1" stroke-linecap="butt" stroke-linejoin="miter" stroke-miterlimit="10" transform="matrix(1, 0, 0, 1, 1.4999999999999971, 26.499999999999996)"/></g><g transform="matrix(1, 0, 0, 1, 0, 0)" clip-path="url(#CLIP3183)"><text x="15" y="8.51220703125" style="font: 10px Roboto" text-anchor="middle" fill="black" stroke="none" transform="matrix(1, 0, 0, 1, 37.5, 28.919999999999998)">0</text></g></g></g></g><path d="M 0,0 L 8,4.62 L 0,9.24 z" fill="#000000" stroke="none" transform="matrix(-1.4784387300356867, 1.3469294419272546, -1.3469294419272546, -1.4784387300356867, 40.63735095727147, 101.42348683573728)"/><path d="M 0,0 L 8,4.62 L 0,9.24 z" fill="none" stroke="#000000" stroke-width="1" stroke-linecap="butt" stroke-linejoin="miter" stroke-miterlimit="10" transform="matrix(-1.4784387300356867, 1.3469294419272546, -1.3469294419272546, -1.4784387300356867, 40.63735095727147, 101.42348683573728)"/></g><g transform="matrix(1, 0, 0, 1, 213.05514590623238, 1127.7350867242592)"><path d="M 0,0 C 32.894100295240094,39.09179359855489 59.49682998712109,81.40620257154683 80.46850557551994,127.99352900267263" fill="none" stroke="black" stroke-width="2" stroke-linecap="butt" stroke-linejoin="miter" stroke-miterlimit="10" transform="matrix(1, 0, 0, 1, 13.794837947174585, 1)"/><g transform="matrix(1, 0, 0, 1, 0, 41.18593968912205)"><g transform="matrix(1, 0, 0, 1, 0, 0)"><g transform="matrix(1, 0, 0, 1, 0, 0)"><path d="M 0,4 A 4,4 0 0,1 3.999999999999999,0 L 91,0 A 4,4 0 0,1 95,3.999999999999999 L 95,36 A 4,4 0 0,1 91,40 L 4,40 A 4,4 0 0,1 0,36 z" fill="white" stroke="none" transform="matrix(1, 0, 0, 1, 1, 1)"/><path d="M 0,4 A 4,4 0 0,1 3.999999999999999,0 L 91,0 A 4,4 0 0,1 95,3.999999999999999 L 95,36 A 4,4 0 0,1 91,40 L 4,40 A 4,4 0 0,1 0,36 z" fill="none" stroke="#373f47" stroke-width="2" stroke-linecap="butt" stroke-linejoin="miter" stroke-miterlimit="10" transform="matrix(1, 0, 0, 1, 1, 1)"/><text x="43" y="11.91708984375" style="font: 14px Roboto" text-anchor="middle" fill="black" stroke="none" transform="matrix(1, 0, 0, 1, 6.2999999999999945, 6.1821093750000005)">occupation</text><g transform="matrix(1, 0, 0, 1, 0, 0)" clip-path="url(#CLIP3184)"><path d="M 0,0 L 94,0 L 94,9 A 5,5 0 0,1 89,14 L 5,14 A 5,5 0 0,1 0,9 z" fill="#aaccff" stroke="none" transform="matrix(1, 0, 0, 1, 1.4999999999999971, 26.499999999999996)"/><path d="M 0,0 L 94,0 L 94,9 A 5,5 0 0,1 89,14 L 5,14 A 5,5 0 0,1 0,9 z" fill="none" stroke="#373f47" stroke-width="1" stroke-linecap="butt" stroke-linejoin="miter" stroke-miterlimit="10" transform="matrix(1, 0, 0, 1, 1.4999999999999971, 26.499999999999996)"/></g><g transform="matrix(1, 0, 0, 1, 0, 0)" clip-path="url(#CLIP3185)"><text x="15" y="8.51220703125" style="font: 10px Roboto" text-anchor="middle" fill="black" stroke="none" transform="matrix(1, 0, 0, 1, 33.5, 28.919999999999998)">0</text></g></g></g></g><path d="M 0,0 L 8,4.62 L 0,9.24 z" fill="#000000" stroke="none" transform="matrix(0.8209695560330166, 1.8237349007097912, -1.8237349007097912, 0.8209695560330166, 95.71075753769311, 109.69890299776687)"/><path d="M 0,0 L 8,4.62 L 0,9.24 z" fill="none" stroke="#000000" stroke-width="1" stroke-linecap="butt" stroke-linejoin="miter" stroke-miterlimit="10" transform="matrix(0.8209695560330166, 1.8237349007097912, -1.8237349007097912, 0.8209695560330166, 95.71075753769311, 109.69890299776687)"/></g><g transform="matrix(1, 0, 0, 1, 119.81232525101399, 1142.3360431355754)"><path d="M 35.877206986222035,0 C 29.871587055687115,41.69485552821334 18.05289246898414,80.87463758276272 0,118.93539850227035" fill="none" stroke="black" stroke-width="2" stroke-linecap="butt" stroke-linejoin="miter" stroke-miterlimit="10" transform="matrix(1, 0, 0, 1, 20.043669304970535, 1)"/><g transform="matrix(1, 0, 0, 1, 0, 40.830484729399814)"><g transform="matrix(1, 0, 0, 1, 0, 0)"><g transform="matrix(1, 0, 0, 1, 0, 0)"><path d="M 0,4 A 4,4 0 0,1 3.999999999999999,0 L 59,0 A 4,4 0 0,1 63,3.999999999999999 L 63,36 A 4,4 0 0,1 59,40 L 4,40 A 4,4 0 0,1 0,36 z" fill="white" stroke="none" transform="matrix(1, 0, 0, 1, 1, 1)"/><path d="M 0,4 A 4,4 0 0,1 3.999999999999999,0 L 59,0 A 4,4 0 0,1 63,3.999999999999999 L 63,36 A 4,4 0 0,1 59,40 L 4,40 A 4,4 0 0,1 0,36 z" fill="none" stroke="#373f47" stroke-width="2" stroke-linecap="butt" stroke-linejoin="miter" stroke-miterlimit="10" transform="matrix(1, 0, 0, 1, 1, 1)"/><text x="27" y="11.91708984375" style="font: 14px Roboto" text-anchor="middle" fill="black" stroke="none" transform="matrix(1, 0, 0, 1, 6.2999999999999945, 6.1821093750000005)">remark</text><g transform="matrix(1, 0, 0, 1, 0, 0)" clip-path="url(#CLIP3186)"><path d="M 0,0 L 62,0 L 62,9 A 5,5 0 0,1 57,14 L 5,14 A 5,5 0 0,1 0,9 z" fill="#aaccff" stroke="none" transform="matrix(1, 0, 0, 1, 1.4999999999999971, 26.499999999999996)"/><path d="M 0,0 L 62,0 L 62,9 A 5,5 0 0,1 57,14 L 5,14 A 5,5 0 0,1 0,9 z" fill="none" stroke="#373f47" stroke-width="1" stroke-linecap="butt" stroke-linejoin="miter" stroke-miterlimit="10" transform="matrix(1, 0, 0, 1, 1.4999999999999971, 26.499999999999996)"/></g><g transform="matrix(1, 0, 0, 1, 0, 0)" clip-path="url(#CLIP3187)"><text x="15" y="8.51220703125" style="font: 10px Roboto" text-anchor="middle" fill="black" stroke="none" transform="matrix(1, 0, 0, 1, 17.499999999999996, 28.919999999999998)">0</text></g></g></g></g><path d="M 0,0 L 8,4.62 L 0,9.24 z" fill="#000000" stroke="none" transform="matrix(-0.8571075247995223, 1.8070325649893628, -1.8070325649893628, -0.8571075247995223, 35.677573716017335, 108.53545846443456)"/><path d="M 0,0 L 8,4.62 L 0,9.24 z" fill="none" stroke="#000000" stroke-width="1" stroke-linecap="butt" stroke-linejoin="miter" stroke-miterlimit="10" transform="matrix(-0.8571075247995223, 1.8070325649893628, -1.8070325649893628, -0.8571075247995223, 35.677573716017335, 108.53545846443456)"/></g><g transform="matrix(1, 0, 0, 1, -0.03251045846396039, 779.9677695507015)"><path d="M 121.63168587152151,220.78795152765315 C 73.10135042875038,151.44986234080898 32.67733167984806,78.07148048138856 0,0" fill="none" stroke="black" stroke-width="2" stroke-linecap="butt" stroke-linejoin="miter" stroke-miterlimit="10" transform="matrix(1, 0, 0, 1, 26.12903347533539, 24.991921346297342)"/><g transform="matrix(1, 0, 0, 1, 0, 117.6609188455781)"><g transform="matrix(1, 0, 0, 1, 0, 0)"><g transform="matrix(1, 0, 0, 1, 0, 0)"><path d="M 0,4 A 4,4 0 0,1 3.999999999999999,0 L 136,0 A 4,4 0 0,1 140,3.999999999999999 L 140,36 A 4,4 0 0,1 136,40 L 4,40 A 4,4 0 0,1 0,36 z" fill="white" stroke="none" transform="matrix(1, 0, 0, 1, 1, 1)"/><path d="M 0,4 A 4,4 0 0,1 3.999999999999999,0 L 136,0 A 4,4 0 0,1 140,3.999999999999999 L 140,36 A 4,4 0 0,1 136,40 L 4,40 A 4,4 0 0,1 0,36 z" fill="none" stroke="#373f47" stroke-width="2" stroke-linecap="butt" stroke-linejoin="miter" stroke-miterlimit="10" transform="matrix(1, 0, 0, 1, 1, 1)"/><text x="62.5" y="11.91708984375" style="font: 14px Roboto" text-anchor="middle" fill="black" stroke="none" transform="matrix(1, 0, 0, 1, 9.300000000000008, 6.1821093750000005)">workshop address</text><g transform="matrix(1, 0, 0, 1, 0, 0)" clip-path="url(#CLIP3188)"><path d="M 0,0 L 139,0 L 139,9 A 5,5 0 0,1 134,14 L 5,14 A 5,5 0 0,1 0,9 z" fill="#aaccff" stroke="none" transform="matrix(1, 0, 0, 1, 1.5000000000000113, 26.499999999999996)"/><path d="M 0,0 L 139,0 L 139,9 A 5,5 0 0,1 134,14 L 5,14 A 5,5 0 0,1 0,9 z" fill="none" stroke="#373f47" stroke-width="1" stroke-linecap="butt" stroke-linejoin="miter" stroke-miterlimit="10" transform="matrix(1, 0, 0, 1, 1.5000000000000113, 26.499999999999996)"/></g><g transform="matrix(1, 0, 0, 1, 0, 0)" clip-path="url(#CLIP3189)"><text x="15" y="8.51220703125" style="font: 10px Roboto" text-anchor="middle" fill="black" stroke="none" transform="matrix(1, 0, 0, 1, 56.000000000000014, 28.919999999999998)">0</text></g></g></g></g><path d="M 0,0 L 8,4.62 L 0,9.24 z" fill="#000000" stroke="none" transform="matrix(-0.7722007082114284, -1.8449135660615021, 1.8449135660615021, -0.7722007082114284, 24.16923881992839, 44.241253929756915)"/><path d="M 0,0 L 8,4.62 L 0,9.24 z" fill="none" stroke="#000000" stroke-width="1" stroke-linecap="butt" stroke-linejoin="miter" stroke-miterlimit="10" transform="matrix(-0.7722007082114284, -1.8449135660615021, 1.8449135660615021, -0.7722007082114284, 24.16923881992839, 44.241253929756915)"/></g><g transform="matrix(1, 0, 0, 1, 221.3327563414223, 975.2253265431999)"><path d="M 170.74752072810017,0 C 117.11534037343657,34.58344375092827 60.50192349459738,61.805226082913464 0,82.10159533267517" fill="none" stroke="#ED5C5C" stroke-width="2" stroke-linecap="butt" stroke-linejoin="miter" stroke-miterlimit="10" transform="matrix(1, 0, 0, 1, 25.292107478904544, 1)"/><g transform="matrix(1, 0, 0, 1, 70.7420215204298, 26.408450604275004)"><g transform="matrix(1, 0, 0, 1, 0, 0)"><g transform="matrix(1, 0, 0, 1, 0, 0)"><path d="M 0,4 A 4,4 0 0,1 3.999999999999999,0 L 59,0 A 4,4 0 0,1 63,3.999999999999999 L 63,36 A 4,4 0 0,1 59,40 L 4,40 A 4,4 0 0,1 0,36 z" fill="white" stroke="none" transform="matrix(1, 0, 0, 1, 1, 1)"/><path d="M 0,4 A 4,4 0 0,1 3.999999999999999,0 L 59,0 A 4,4 0 0,1 63,3.999999999999999 L 63,36 A 4,4 0 0,1 59,40 L 4,40 A 4,4 0 0,1 0,36 z" fill="none" stroke="#373f47" stroke-width="2" stroke-linecap="butt" stroke-linejoin="miter" stroke-miterlimit="10" transform="matrix(1, 0, 0, 1, 1, 1)"/><text x="27" y="11.91708984375" style="font: 14px Roboto" text-anchor="middle" fill="black" stroke="none" transform="matrix(1, 0, 0, 1, 6.2999999999999945, 6.1821093750000005)">rdf:_N</text><g transform="matrix(1, 0, 0, 1, 0, 0)" clip-path="url(#CLIP3190)"><path d="M 0,0 L 62,0 L 62,9 A 5,5 0 0,1 57,14 L 5,14 A 5,5 0 0,1 0,9 z" fill="#aaccff" stroke="none" transform="matrix(1, 0, 0, 1, 1.4999999999999971, 26.499999999999996)"/><path d="M 0,0 L 62,0 L 62,9 A 5,5 0 0,1 57,14 L 5,14 A 5,5 0 0,1 0,9 z" fill="none" stroke="#373f47" stroke-width="1" stroke-linecap="butt" stroke-linejoin="miter" stroke-miterlimit="10" transform="matrix(1, 0, 0, 1, 1.4999999999999971, 26.499999999999996)"/></g><g transform="matrix(1, 0, 0, 1, 0, 0)" clip-path="url(#CLIP3191)"><text x="15" y="8.51220703125" style="font: 10px Roboto" text-anchor="middle" fill="black" stroke="none" transform="matrix(1, 0, 0, 1, 17.499999999999996, 28.919999999999998)">0</text></g></g></g></g><path d="M 0,0 L 8,4.62 L 0,9.24 z" fill="#ED5C5C" stroke="none" transform="matrix(-1.8961496560100575, 0.6360947115115332, -0.6360947115115332, -1.8961496560100575, 44.34813712217331, 86.4550016955936)"/><path d="M 0,0 L 8,4.62 L 0,9.24 z" fill="none" stroke="#ED5C5C" stroke-width="1" stroke-linecap="butt" stroke-linejoin="miter" stroke-miterlimit="10" transform="matrix(-1.8961496560100575, 0.6360947115115332, -0.6360947115115332, -1.8961496560100575, 44.34813712217331, 86.4550016955936)"/></g><g transform="matrix(1, 0, 0, 1, 248.0162132680165, 1089.2660746857027)"><path d="M 0,0 C 83.5727054309566,14.707779373476114 164.2744187596369,38.016721097836125 242.81904969978996,70.13302252909466" fill="none" stroke="#ED5C5C" stroke-width="2" stroke-linecap="butt" stroke-linejoin="miter" stroke-miterlimit="10" transform="matrix(1, 0, 0, 1, 1, 1)"/><g transform="matrix(1, 0, 0, 1, 57.79505278394629, 8.538315492879065)"><g transform="matrix(1, 0, 0, 1, 0, 0)"><g transform="matrix(1, 0, 0, 1, 0, 0)"><path d="M 0,4 A 4,4 0 0,1 3.999999999999999,0 L 107,0 A 4,4 0 0,1 111,3.999999999999999 L 111,36 A 4,4 0 0,1 107,40 L 4,40 A 4,4 0 0,1 0,36 z" fill="white" stroke="none" transform="matrix(1, 0, 0, 1, 1, 1)"/><path d="M 0,4 A 4,4 0 0,1 3.999999999999999,0 L 107,0 A 4,4 0 0,1 111,3.999999999999999 L 111,36 A 4,4 0 0,1 107,40 L 4,40 A 4,4 0 0,1 0,36 z" fill="none" stroke="#373f47" stroke-width="2" stroke-linecap="butt" stroke-linejoin="miter" stroke-miterlimit="10" transform="matrix(1, 0, 0, 1, 1, 1)"/><text x="51" y="11.91708984375" style="font: 14px Roboto" text-anchor="middle" fill="black" stroke="none" transform="matrix(1, 0, 0, 1, 6.2999999999999945, 6.1821093750000005)">schema:image</text><g transform="matrix(1, 0, 0, 1, 0, 0)" clip-path="url(#CLIP3192)"><path d="M 0,0 L 110,0 L 110,9 A 5,5 0 0,1 105,14 L 5,14 A 5,5 0 0,1 0,9 z" fill="#aaccff" stroke="none" transform="matrix(1, 0, 0, 1, 1.4999999999999971, 26.499999999999996)"/><path d="M 0,0 L 110,0 L 110,9 A 5,5 0 0,1 105,14 L 5,14 A 5,5 0 0,1 0,9 z" fill="none" stroke="#373f47" stroke-width="1" stroke-linecap="butt" stroke-linejoin="miter" stroke-miterlimit="10" transform="matrix(1, 0, 0, 1, 1.4999999999999971, 26.499999999999996)"/></g><g transform="matrix(1, 0, 0, 1, 0, 0)" clip-path="url(#CLIP3193)"><text x="15" y="8.51220703125" style="font: 10px Roboto" text-anchor="middle" fill="black" stroke="none" transform="matrix(1, 0, 0, 1, 41.5, 28.919999999999998)">0</text></g></g></g></g><path d="M 0,0 L 8,4.62 L 0,9.24 z" fill="#ED5C5C" stroke="none" transform="matrix(1.8512226779136485, 0.7569508549293147, -0.7569508549293147, 1.8512226779136485, 231.58076988729738, 56.14629149023442)"/><path d="M 0,0 L 8,4.62 L 0,9.24 z" fill="none" stroke="#ED5C5C" stroke-width="1" stroke-linecap="butt" stroke-linejoin="miter" stroke-miterlimit="10" transform="matrix(1.8512226779136485, 0.7569508549293147, -0.7569508549293147, 1.8512226779136485, 231.58076988729738, 56.14629149023442)"/></g><g transform="matrix(1, 0, 0, 1, 64.1455607546072, 703.990400532886)"><path d="M 0,9.802891425929147 C 62.90235160471684,-0.4981375988935497 125.59983856926075,-2.8640805032158596 189.09963039453376,2.667056316701519" fill="none" stroke="black" stroke-width="2" stroke-linecap="butt" stroke-linejoin="miter" stroke-miterlimit="10" transform="matrix(1, 0, 0, 1, 1, 20.702088320462167)"/><g transform="matrix(1, 0, 0, 1, 52.8257751145583, 0)"><g transform="matrix(1, 0, 0, 1, 0, 0)"><g transform="matrix(1, 0, 0, 1, 0, 0)"><path d="M 0,4 A 4,4 0 0,1 3.999999999999999,0 L 59,0 A 4,4 0 0,1 63,3.999999999999999 L 63,36 A 4,4 0 0,1 59,40 L 4,40 A 4,4 0 0,1 0,36 z" fill="white" stroke="none" transform="matrix(1, 0, 0, 1, 1, 1)"/><path d="M 0,4 A 4,4 0 0,1 3.999999999999999,0 L 59,0 A 4,4 0 0,1 63,3.999999999999999 L 63,36 A 4,4 0 0,1 59,40 L 4,40 A 4,4 0 0,1 0,36 z" fill="none" stroke="#373f47" stroke-width="2" stroke-linecap="butt" stroke-linejoin="miter" stroke-miterlimit="10" transform="matrix(1, 0, 0, 1, 1, 1)"/><text x="27" y="11.91708984375" style="font: 14px Roboto" text-anchor="middle" fill="black" stroke="none" transform="matrix(1, 0, 0, 1, 6.2999999999999945, 6.1821093750000005)">street</text><g transform="matrix(1, 0, 0, 1, 0, 0)" clip-path="url(#CLIP3194)"><path d="M 0,0 L 62,0 L 62,9 A 5,5 0 0,1 57,14 L 5,14 A 5,5 0 0,1 0,9 z" fill="#aaccff" stroke="none" transform="matrix(1, 0, 0, 1, 1.4999999999999971, 26.499999999999996)"/><path d="M 0,0 L 62,0 L 62,9 A 5,5 0 0,1 57,14 L 5,14 A 5,5 0 0,1 0,9 z" fill="none" stroke="#373f47" stroke-width="1" stroke-linecap="butt" stroke-linejoin="miter" stroke-miterlimit="10" transform="matrix(1, 0, 0, 1, 1.4999999999999971, 26.499999999999996)"/></g><g transform="matrix(1, 0, 0, 1, 0, 0)" clip-path="url(#CLIP3195)"><text x="15" y="8.51220703125" style="font: 10px Roboto" text-anchor="middle" fill="black" stroke="none" transform="matrix(1, 0, 0, 1, 17.499999999999996, 28.919999999999998)">0</text></g></g></g></g><path d="M 0,0 L 8,4.62 L 0,9.24 z" fill="#000000" stroke="none" transform="matrix(1.9924556569495084, 0.17355245630616228, -0.17355245630616228, 1.9924556569495084, 173.9655696585974, 12.688803623454577)"/><path d="M 0,0 L 8,4.62 L 0,9.24 z" fill="none" stroke="#000000" stroke-width="1" stroke-linecap="butt" stroke-linejoin="miter" stroke-miterlimit="10" transform="matrix(1.9924556569495084, 0.17355245630616228, -0.17355245630616228, 1.9924556569495084, 173.9655696585974, 12.688803623454577)"/></g><g transform="matrix(1, 0, 0, 1, 533.7721209737189, 1069.7930304504746)"><path d="M 2.323964100807416,50.93870483573505 C -2.300876912056424,31.305899165263554 -1.2087395880238319,14.92383930477581 10.255302195932131,0" fill="none" stroke="#ED5C5C" stroke-width="2" stroke-linecap="butt" stroke-linejoin="miter" stroke-miterlimit="10" transform="matrix(1, 0, 0, 1, 1.000000000000087, 1)"/></g><g transform="matrix(1, 0, 0, 1, 561.5872107657025, 1069.8668773486522)"><path d="M 0,0 C 10.452572003640284,18.17594293278671 9.360434679607692,34.558002793274454 2.170396816795119,53.40314987203442" fill="none" stroke="#ED5C5C" stroke-width="2" stroke-linecap="butt" stroke-linejoin="miter" stroke-miterlimit="10" transform="matrix(1, 0, 0, 1, 11.412856509182937, 1)"/><path d="M 0,0 L 8,4.62 L 0,9.24 z" fill="#ED5C5C" stroke="none" transform="matrix(-0.7129373566670848, 1.8686145470557993, -1.8686145470557993, -0.7129373566670848, 28.276220065046072, 41.81369680986206)"/><path d="M 0,0 L 8,4.62 L 0,9.24 z" fill="none" stroke="#ED5C5C" stroke-width="1" stroke-linecap="butt" stroke-linejoin="miter" stroke-miterlimit="10" transform="matrix(-0.7129373566670848, 1.8686145470557993, -1.8686145470557993, -0.7129373566670848, 28.276220065046072, 41.81369680986206)"/></g><g transform="matrix(1, 0, 0, 1, 559.361454113614, 1246.990853961632)"><path d="M 7.67451536703652,0 C 13.739387531822672,23.823410071276612 13.034274230552569,44.835786449128136 0,65.16729058047395" fill="none" stroke="#ED5C5C" stroke-width="2" stroke-linecap="butt" stroke-linejoin="miter" stroke-miterlimit="10" transform="matrix(1, 0, 0, 1, 1, 1)"/></g><g transform="matrix(1, 0, 0, 1, 516.4453506063941, 1221.4592494992355)"><path d="M 9.270263951013817,66.34973782444922 C -2.8198619740319373,44.3756123274195 -2.1147486727618343,23.36323594956798 5.53356798936818,0" fill="none" stroke="#ED5C5C" stroke-width="2" stroke-linecap="butt" stroke-linejoin="miter" stroke-miterlimit="10" transform="matrix(1, 0, 0, 1, 9.798367843284915, 25.314870132141294)"/><path d="M 0,0 L 8,4.62 L 0,9.24 z" fill="#ED5C5C" stroke="none" transform="matrix(0.6222373403370134, -1.900742142503901, 1.900742142503901, 0.6222373403370134, 1.2614897414204567, 38.59644183106745)"/><path d="M 0,0 L 8,4.62 L 0,9.24 z" fill="none" stroke="#ED5C5C" stroke-width="1" stroke-linecap="butt" stroke-linejoin="miter" stroke-miterlimit="10" transform="matrix(0.6222373403370134, -1.900742142503901, 1.900742142503901, 0.6222373403370134, 1.2614897414204567, 38.59644183106745)"/></g><g transform="matrix(1, 0, 0, 1, 47, 1256)"><path d="M 64,0 C 99.3462239891708,0 128,28.653776010829212 128,64 C 128,99.3462239891708 99.3462239891708,128 64,128 C 28.653776010829212,128 0,99.3462239891708 0,64 C 0,28.653776010829212 28.653776010829212,0 64,0 z" fill="#AACCFF" stroke="none" transform="matrix(1, 0, 0, 1, 1, 1)"/><path d="M 64,0 C 99.3462239891708,0 128,28.653776010829212 128,64 C 128,99.3462239891708 99.3462239891708,128 64,128 C 28.653776010829212,128 0,99.3462239891708 0,64 C 0,28.653776010829212 28.653776010829212,0 64,0 z" fill="none" stroke="#373f47" stroke-width="2" stroke-linecap="butt" stroke-linejoin="miter" stroke-miterlimit="10" transform="matrix(1, 0, 0, 1, 1, 1)"/><text x="41.5" y="36.472363281250004" style="font: 14px Roboto" text-anchor="middle" fill="black" stroke="none" transform="matrix(1, 0, 0, 1, 23.5, 32.5)">remark</text><path d="M 0,99 C 19.233073572552435,127.99494936611666 58.32961093261506,135.90851327382072 87.32456029873171,116.67543970126829 C 94.33782793162888,112.02336424273551 100.34792454146724,106.01326763289717 105,98.99999999999999 L 0,99 z" fill="#8cb8ff" stroke="none" transform="matrix(1, 0, 0, 1, 12.5, 1.4099964710020032)"/><path d="M 0,99 C 19.233073572552435,127.99494936611666 58.32961093261506,135.90851327382072 87.32456029873171,116.67543970126829 C 94.33782793162888,112.02336424273551 100.34792454146724,106.01326763289717 105,98.99999999999999 L 0,99 z" fill="none" stroke="#373f47" stroke-width="1" stroke-linecap="butt" stroke-linejoin="miter" stroke-miterlimit="10" transform="matrix(1, 0, 0, 1, 12.5, 1.4099964710020032)"/><g transform="matrix(1, 0, 0, 1, 0, 0)" clip-path="url(#CLIP3196)"><text x="15" y="8.51220703125" style="font: 10px Roboto" text-anchor="middle" fill="black" stroke="none" transform="matrix(1, 0, 0, 1, 50, 108)">2</text></g></g><g transform="matrix(1, 0, 0, 1, 407, 876)"><path d="M 64,0 C 99.3462239891708,0 128,28.653776010829212 128,64 C 128,99.3462239891708 99.3462239891708,128 64,128 C 28.653776010829212,128 0,99.3462239891708 0,64 C 0,28.653776010829212 28.653776010829212,0 64,0 z" fill="#AACCFF" stroke="none" transform="matrix(1, 0, 0, 1, 1, 1)"/><path d="M 64,0 C 99.3462239891708,0 128,28.653776010829212 128,64 C 128,99.3462239891708 99.3462239891708,128 64,128 C 28.653776010829212,128 0,99.3462239891708 0,64 C 0,28.653776010829212 28.653776010829212,0 64,0 z" fill="none" stroke="#373f47" stroke-width="2" stroke-linecap="butt" stroke-linejoin="miter" stroke-miterlimit="10" transform="matrix(1, 0, 0, 1, 1, 1)"/><text x="41.5" y="36.472363281250004" style="font: 14px Roboto" text-anchor="middle" fill="black" stroke="none" transform="matrix(1, 0, 0, 1, 23.5, 32.5)">card series</text><path d="M 0,99 C 19.233073572552435,127.99494936611666 58.32961093261506,135.90851327382072 87.32456029873171,116.67543970126829 C 94.33782793162888,112.02336424273551 100.34792454146724,106.01326763289717 105,98.99999999999999 L 0,99 z" fill="#aaccff" stroke="none" transform="matrix(1, 0, 0, 1, 12.5, 1.4099964710020032)"/><path d="M 0,99 C 19.233073572552435,127.99494936611666 58.32961093261506,135.90851327382072 87.32456029873171,116.67543970126829 C 94.33782793162888,112.02336424273551 100.34792454146724,106.01326763289717 105,98.99999999999999 L 0,99 z" fill="none" stroke="#373f47" stroke-width="1" stroke-linecap="butt" stroke-linejoin="miter" stroke-miterlimit="10" transform="matrix(1, 0, 0, 1, 12.5, 1.4099964710020032)"/><g transform="matrix(1, 0, 0, 1, 0, 0)" clip-path="url(#CLIP3197)"><text x="15" y="8.51220703125" style="font: 10px Roboto" text-anchor="middle" fill="black" stroke="none" transform="matrix(1, 0, 0, 1, 50, 108)">0</text></g></g><g transform="matrix(1, 0, 0, 1, -334, 1022)"><path d="M 64,0 C 99.3462239891708,0 128,28.653776010829212 128,64 C 128,99.3462239891708 99.3462239891708,128 64,128 C 28.653776010829212,128 0,99.3462239891708 0,64 C 0,28.653776010829212 28.653776010829212,0 64,0 z" fill="#AACCFF" stroke="none" transform="matrix(1, 0, 0, 1, 1, 1)"/><path d="M 64,0 C 99.3462239891708,0 128,28.653776010829212 128,64 C 128,99.3462239891708 99.3462239891708,128 64,128 C 28.653776010829212,128 0,99.3462239891708 0,64 C 0,28.653776010829212 28.653776010829212,0 64,0 z" fill="none" stroke="#373f47" stroke-width="2" stroke-linecap="butt" stroke-linejoin="miter" stroke-miterlimit="10" transform="matrix(1, 0, 0, 1, 1, 1)"/><text x="41.5" y="36.472363281250004" style="font: 14px Roboto" text-anchor="middle" fill="black" stroke="none" transform="matrix(1, 0, 0, 1, 23.5, 32.5)">place</text><path d="M 0,99 C 19.233073572552435,127.99494936611666 58.32961093261506,135.90851327382072 87.32456029873171,116.67543970126829 C 94.33782793162888,112.02336424273551 100.34792454146724,106.01326763289717 105,98.99999999999999 L 0,99 z" fill="#aaccff" stroke="none" transform="matrix(1, 0, 0, 1, 12.5, 1.4099964710020032)"/><path d="M 0,99 C 19.233073572552435,127.99494936611666 58.32961093261506,135.90851327382072 87.32456029873171,116.67543970126829 C 94.33782793162888,112.02336424273551 100.34792454146724,106.01326763289717 105,98.99999999999999 L 0,99 z" fill="none" stroke="#373f47" stroke-width="1" stroke-linecap="butt" stroke-linejoin="miter" stroke-miterlimit="10" transform="matrix(1, 0, 0, 1, 12.5, 1.4099964710020032)"/><g transform="matrix(1, 0, 0, 1, 0, 0)" clip-path="url(#CLIP3198)"><text x="15" y="8.51220703125" style="font: 10px Roboto" text-anchor="middle" fill="black" stroke="none" transform="matrix(1, 0, 0, 1, 50, 108)">0</text></g></g><g transform="matrix(1, 0, 0, 1, 254, 668)"><path d="M 64,0 C 99.3462239891708,0 128,28.653776010829212 128,64 C 128,99.3462239891708 99.3462239891708,128 64,128 C 28.653776010829212,128 0,99.3462239891708 0,64 C 0,28.653776010829212 28.653776010829212,0 64,0 z" fill="#AACCFF" stroke="none" transform="matrix(1, 0, 0, 1, 1, 1)"/><path d="M 64,0 C 99.3462239891708,0 128,28.653776010829212 128,64 C 128,99.3462239891708 99.3462239891708,128 64,128 C 28.653776010829212,128 0,99.3462239891708 0,64 C 0,28.653776010829212 28.653776010829212,0 64,0 z" fill="none" stroke="#373f47" stroke-width="2" stroke-linecap="butt" stroke-linejoin="miter" stroke-miterlimit="10" transform="matrix(1, 0, 0, 1, 1, 1)"/><text x="41.5" y="36.472363281250004" style="font: 14px Roboto" text-anchor="middle" fill="black" stroke="none" transform="matrix(1, 0, 0, 1, 23.5, 32.5)">street</text><path d="M 0,99 C 19.233073572552435,127.99494936611666 58.32961093261506,135.90851327382072 87.32456029873171,116.67543970126829 C 94.33782793162888,112.02336424273551 100.34792454146724,106.01326763289717 105,98.99999999999999 L 0,99 z" fill="#aaccff" stroke="none" transform="matrix(1, 0, 0, 1, 12.5, 1.4099964710020032)"/><path d="M 0,99 C 19.233073572552435,127.99494936611666 58.32961093261506,135.90851327382072 87.32456029873171,116.67543970126829 C 94.33782793162888,112.02336424273551 100.34792454146724,106.01326763289717 105,98.99999999999999 L 0,99 z" fill="none" stroke="#373f47" stroke-width="1" stroke-linecap="butt" stroke-linejoin="miter" stroke-miterlimit="10" transform="matrix(1, 0, 0, 1, 12.5, 1.4099964710020032)"/><g transform="matrix(1, 0, 0, 1, 0, 0)" clip-path="url(#CLIP3199)"><text x="15" y="8.51220703125" style="font: 10px Roboto" text-anchor="middle" fill="black" stroke="none" transform="matrix(1, 0, 0, 1, 50, 108)">0</text></g></g><g transform="matrix(1, 0, 0, 1, 269, 1251)"><path d="M 64,0 C 99.3462239891708,0 128,28.653776010829212 128,64 C 128,99.3462239891708 99.3462239891708,128 64,128 C 28.653776010829212,128 0,99.3462239891708 0,64 C 0,28.653776010829212 28.653776010829212,0 64,0 z" fill="#AACCFF" stroke="none" transform="matrix(1, 0, 0, 1, 1, 1)"/><path d="M 64,0 C 99.3462239891708,0 128,28.653776010829212 128,64 C 128,99.3462239891708 99.3462239891708,128 64,128 C 28.653776010829212,128 0,99.3462239891708 0,64 C 0,28.653776010829212 28.653776010829212,0 64,0 z" fill="none" stroke="#373f47" stroke-width="2" stroke-linecap="butt" stroke-linejoin="miter" stroke-miterlimit="10" transform="matrix(1, 0, 0, 1, 1, 1)"/><text x="41.5" y="36.472363281250004" style="font: 14px Roboto" text-anchor="middle" fill="black" stroke="none" transform="matrix(1, 0, 0, 1, 23.5, 32.5)">occupation</text><path d="M 0,99 C 19.233073572552435,127.99494936611666 58.32961093261506,135.90851327382072 87.32456029873171,116.67543970126829 C 94.33782793162888,112.02336424273551 100.34792454146724,106.01326763289717 105,98.99999999999999 L 0,99 z" fill="#aaccff" stroke="none" transform="matrix(1, 0, 0, 1, 12.5, 1.4099964710020032)"/><path d="M 0,99 C 19.233073572552435,127.99494936611666 58.32961093261506,135.90851327382072 87.32456029873171,116.67543970126829 C 94.33782793162888,112.02336424273551 100.34792454146724,106.01326763289717 105,98.99999999999999 L 0,99 z" fill="none" stroke="#373f47" stroke-width="1" stroke-linecap="butt" stroke-linejoin="miter" stroke-miterlimit="10" transform="matrix(1, 0, 0, 1, 12.5, 1.4099964710020032)"/><g transform="matrix(1, 0, 0, 1, 0, 0)" clip-path="url(#CLIP3200)"><text x="15" y="8.51220703125" style="font: 10px Roboto" text-anchor="middle" fill="black" stroke="none" transform="matrix(1, 0, 0, 1, 50, 108)">0</text></g></g><g transform="matrix(1, 0, 0, 1, 404, 660)"><path d="M 64,0 C 99.3462239891708,0 128,28.653776010829212 128,64 C 128,99.3462239891708 99.3462239891708,128 64,128 C 28.653776010829212,128 0,99.3462239891708 0,64 C 0,28.653776010829212 28.653776010829212,0 64,0 z" fill="#ED5C5C" stroke="none" transform="matrix(1, 0, 0, 1, 1, 1)"/><path d="M 64,0 C 99.3462239891708,0 128,28.653776010829212 128,64 C 128,99.3462239891708 99.3462239891708,128 64,128 C 28.653776010829212,128 0,99.3462239891708 0,64 C 0,28.653776010829212 28.653776010829212,0 64,0 z" fill="none" stroke="#373f47" stroke-width="2" stroke-linecap="butt" stroke-linejoin="miter" stroke-miterlimit="10" transform="matrix(1, 0, 0, 1, 1, 1)"/><text x="41.5" y="36.472363281250004" style="font: 14px Roboto" text-anchor="middle" fill="black" stroke="none" transform="matrix(1, 0, 0, 1, 23.5, 32.5)">rdf:Bag</text><path d="M 0,99 C 19.233073572552435,127.99494936611666 58.32961093261506,135.90851327382072 87.32456029873171,116.67543970126829 C 94.33782793162888,112.02336424273551 100.34792454146724,106.01326763289717 105,98.99999999999999 L 0,99 z" fill="#aaccff" stroke="none" transform="matrix(1, 0, 0, 1, 12.5, 1.4099964710020032)"/><path d="M 0,99 C 19.233073572552435,127.99494936611666 58.32961093261506,135.90851327382072 87.32456029873171,116.67543970126829 C 94.33782793162888,112.02336424273551 100.34792454146724,106.01326763289717 105,98.99999999999999 L 0,99 z" fill="none" stroke="#373f47" stroke-width="1" stroke-linecap="butt" stroke-linejoin="miter" stroke-miterlimit="10" transform="matrix(1, 0, 0, 1, 12.5, 1.4099964710020032)"/><g transform="matrix(1, 0, 0, 1, 0, 0)" clip-path="url(#CLIP3201)"><text x="15" y="8.51220703125" style="font: 10px Roboto" text-anchor="middle" fill="black" stroke="none" transform="matrix(1, 0, 0, 1, 50, 108)">0</text></g></g><g transform="matrix(1, 0, 0, 1, 487, 1120)"><path d="M 64,0 C 99.3462239891708,0 128,28.653776010829212 128,64 C 128,99.3462239891708 99.3462239891708,128 64,128 C 28.653776010829212,128 0,99.3462239891708 0,64 C 0,28.653776010829212 28.653776010829212,0 64,0 z" fill="#ED5C5C" stroke="none" transform="matrix(1, 0, 0, 1, 1, 1)"/><path d="M 64,0 C 99.3462239891708,0 128,28.653776010829212 128,64 C 128,99.3462239891708 99.3462239891708,128 64,128 C 28.653776010829212,128 0,99.3462239891708 0,64 C 0,28.653776010829212 28.653776010829212,0 64,0 z" fill="none" stroke="#373f47" stroke-width="2" stroke-linecap="butt" stroke-linejoin="miter" stroke-miterlimit="10" transform="matrix(1, 0, 0, 1, 1, 1)"/><g transform="matrix(1, 0, 0, 1, 0, 0)"><text x="41.5" y="28.52763671875" style="font: 14px Roboto" text-anchor="middle" fill="black" stroke="none" transform="matrix(1, 0, 0, 1, 23.5, 32.5)">schema:Ima</text><text x="41.5" y="44.417089843750006" style="font: 14px Roboto" text-anchor="middle" fill="black" stroke="none" transform="matrix(1, 0, 0, 1, 23.5, 32.5)">geObject</text></g><path d="M 0,99 C 19.233073572552435,127.99494936611666 58.32961093261506,135.90851327382072 87.32456029873171,116.67543970126829 C 94.33782793162888,112.02336424273551 100.34792454146724,106.01326763289717 105,98.99999999999999 L 0,99 z" fill="#8cb8ff" stroke="none" transform="matrix(1, 0, 0, 1, 12.5, 1.4099964710020032)"/><path d="M 0,99 C 19.233073572552435,127.99494936611666 58.32961093261506,135.90851327382072 87.32456029873171,116.67543970126829 C 94.33782793162888,112.02336424273551 100.34792454146724,106.01326763289717 105,98.99999999999999 L 0,99 z" fill="none" stroke="#373f47" stroke-width="1" stroke-linecap="butt" stroke-linejoin="miter" stroke-miterlimit="10" transform="matrix(1, 0, 0, 1, 12.5, 1.4099964710020032)"/><g transform="matrix(1, 0, 0, 1, 0, 0)" clip-path="url(#CLIP3202)"><text x="15" y="8.51220703125" style="font: 10px Roboto" text-anchor="middle" fill="black" stroke="none" transform="matrix(1, 0, 0, 1, 50, 108)">1</text></g></g><g transform="matrix(1, 0, 0, 1, -64, 680)"><path d="M 64,0 C 99.3462239891708,0 128,28.653776010829212 128,64 C 128,99.3462239891708 99.3462239891708,128 64,128 C 28.653776010829212,128 0,99.3462239891708 0,64 C 0,28.653776010829212 28.653776010829212,0 64,0 z" fill="#AACCFF" stroke="none" transform="matrix(1, 0, 0, 1, 1, 1)"/><path d="M 64,0 C 99.3462239891708,0 128,28.653776010829212 128,64 C 128,99.3462239891708 99.3462239891708,128 64,128 C 28.653776010829212,128 0,99.3462239891708 0,64 C 0,28.653776010829212 28.653776010829212,0 64,0 z" fill="none" stroke="#373f47" stroke-width="2" stroke-linecap="butt" stroke-linejoin="miter" stroke-miterlimit="10" transform="matrix(1, 0, 0, 1, 1, 1)"/><text x="41.5" y="36.472363281250004" style="font: 14px Roboto" text-anchor="middle" fill="black" stroke="none" transform="matrix(1, 0, 0, 1, 23.5, 32.5)">address</text><path d="M 0,99 C 19.233073572552435,127.99494936611666 58.32961093261506,135.90851327382072 87.32456029873171,116.67543970126829 C 94.33782793162888,112.02336424273551 100.34792454146724,106.01326763289717 105,98.99999999999999 L 0,99 z" fill="#8cb8ff" stroke="none" transform="matrix(1, 0, 0, 1, 12.5, 1.4099964710020032)"/><path d="M 0,99 C 19.233073572552435,127.99494936611666 58.32961093261506,135.90851327382072 87.32456029873171,116.67543970126829 C 94.33782793162888,112.02336424273551 100.34792454146724,106.01326763289717 105,98.99999999999999 L 0,99 z" fill="none" stroke="#373f47" stroke-width="1" stroke-linecap="butt" stroke-linejoin="miter" stroke-miterlimit="10" transform="matrix(1, 0, 0, 1, 12.5, 1.4099964710020032)"/><g transform="matrix(1, 0, 0, 1, 0, 0)" clip-path="url(#CLIP3203)"><text x="15" y="8.51220703125" style="font: 10px Roboto" text-anchor="middle" fill="black" stroke="none" transform="matrix(1, 0, 0, 1, 50, 108)">2</text></g></g><g transform="matrix(1, 0, 0, 1, 120, 1014)"><path d="M 64,0 C 99.3462239891708,0 128,28.653776010829212 128,64 C 128,99.3462239891708 99.3462239891708,128 64,128 C 28.653776010829212,128 0,99.3462239891708 0,64 C 0,28.653776010829212 28.653776010829212,0 64,0 z" fill="#AACCFF" stroke="none" transform="matrix(1, 0, 0, 1, 1, 1)"/><path d="M 64,0 C 99.3462239891708,0 128,28.653776010829212 128,64 C 128,99.3462239891708 99.3462239891708,128 64,128 C 28.653776010829212,128 0,99.3462239891708 0,64 C 0,28.653776010829212 28.653776010829212,0 64,0 z" fill="none" stroke="#373f47" stroke-width="2" stroke-linecap="butt" stroke-linejoin="miter" stroke-miterlimit="10" transform="matrix(1, 0, 0, 1, 1, 1)"/><text x="41.5" y="36.472363281250004" style="font: 14px Roboto" text-anchor="middle" fill="black" stroke="none" transform="matrix(1, 0, 0, 1, 23.5, 32.5)">card</text><path d="M 0,99 C 19.233073572552435,127.99494936611666 58.32961093261506,135.90851327382072 87.32456029873171,116.67543970126829 C 94.33782793162888,112.02336424273551 100.34792454146724,106.01326763289717 105,98.99999999999999 L 0,99 z" fill="#70a8ff" stroke="none" transform="matrix(1, 0, 0, 1, 12.5, 1.4099964710020032)"/><path d="M 0,99 C 19.233073572552435,127.99494936611666 58.32961093261506,135.90851327382072 87.32456029873171,116.67543970126829 C 94.33782793162888,112.02336424273551 100.34792454146724,106.01326763289717 105,98.99999999999999 L 0,99 z" fill="none" stroke="#373f47" stroke-width="1" stroke-linecap="butt" stroke-linejoin="miter" stroke-miterlimit="10" transform="matrix(1, 0, 0, 1, 12.5, 1.4099964710020032)"/><g transform="matrix(1, 0, 0, 1, 0, 0)" clip-path="url(#CLIP3204)"><text x="15" y="8.51220703125" style="font: 10px Roboto" text-anchor="middle" fill="black" stroke="none" transform="matrix(1, 0, 0, 1, 50, 108)">24</text></g></g><g transform="matrix(1, 0, 0, 1, 496.5, 1029)"><g transform="matrix(1, 0, 0, 1, 0, 0)"><g transform="matrix(1, 0, 0, 1, 0, 0)"><g transform="matrix(1, 0, 0, 1, 0, 0)"><path d="M 0,4 A 4,4 0 0,1 3.999999999999999,0 L 123,0 A 4,4 0 0,1 127,3.999999999999999 L 127,36 A 4,4 0 0,1 123,40 L 4,40 A 4,4 0 0,1 0,36 z" fill="white" stroke="none" transform="matrix(1, 0, 0, 1, 1, 1)"/><path d="M 0,4 A 4,4 0 0,1 3.999999999999999,0 L 123,0 A 4,4 0 0,1 127,3.999999999999999 L 127,36 A 4,4 0 0,1 123,40 L 4,40 A 4,4 0 0,1 0,36 z" fill="none" stroke="#373f47" stroke-width="2" stroke-linecap="butt" stroke-linejoin="miter" stroke-miterlimit="10" transform="matrix(1, 0, 0, 1, 1, 1)"/><text x="59" y="11.91708984375" style="font: 14px Roboto" text-anchor="middle" fill="black" stroke="none" transform="matrix(1, 0, 0, 1, 6.2999999999999945, 8.582109375)">screen version</text><g transform="matrix(1, 0, 0, 1, 0, 0)" clip-path="url(#CLIP3205)"><path d="M 0,0 L 127,0 L 127,9 A 5,5 0 0,1 122,14 L 5,14 A 5,5 0 0,1 0,9 z" fill="#aaccff" stroke="none" transform="matrix(1, 0, 0, 1, 0.9999999999999971, 26.499999999999996)"/><path d="M 0,0 L 127,0 L 127,9 A 5,5 0 0,1 122,14 L 5,14 A 5,5 0 0,1 0,9 z" fill="none" stroke="#373f47" stroke-width="1" stroke-linecap="butt" stroke-linejoin="miter" stroke-miterlimit="10" transform="matrix(1, 0, 0, 1, 0.9999999999999971, 26.499999999999996)"/></g><g transform="matrix(1, 0, 0, 1, 0, 0)" clip-path="url(#CLIP3206)"><text x="15" y="8.51220703125" style="font: 10px Roboto" text-anchor="middle" fill="black" stroke="none" transform="matrix(1, 0, 0, 1, 49.5, 28.919999999999998)">0</text></g></g></g></g></g><g transform="matrix(1, 0, 0, 1, 476, 1313)"><g transform="matrix(1, 0, 0, 1, 0, 0)"><g transform="matrix(1, 0, 0, 1, 0, 0)"><g transform="matrix(1, 0, 0, 1, 0, 0)"><path d="M 0,4 A 4,4 0 0,1 3.999999999999999,0 L 136,0 A 4,4 0 0,1 140,3.999999999999999 L 140,36 A 4,4 0 0,1 136,40 L 4,40 A 4,4 0 0,1 0,36 z" fill="white" stroke="none" transform="matrix(1, 0, 0, 1, 1, 1)"/><path d="M 0,4 A 4,4 0 0,1 3.999999999999999,0 L 136,0 A 4,4 0 0,1 140,3.999999999999999 L 140,36 A 4,4 0 0,1 136,40 L 4,40 A 4,4 0 0,1 0,36 z" fill="none" stroke="#373f47" stroke-width="2" stroke-linecap="butt" stroke-linejoin="miter" stroke-miterlimit="10" transform="matrix(1, 0, 0, 1, 1, 1)"/><text x="62.5" y="11.91708984375" style="font: 14px Roboto" text-anchor="middle" fill="black" stroke="none" transform="matrix(1, 0, 0, 1, 9.300000000000008, 8.582109375)">schema:thumbnail</text><g transform="matrix(1, 0, 0, 1, 0, 0)" clip-path="url(#CLIP3207)"><path d="M 0,0 L 140,0 L 140,9 A 5,5 0 0,1 135,14 L 5,14 A 5,5 0 0,1 0,9 z" fill="#aaccff" stroke="none" transform="matrix(1, 0, 0, 1, 1.0000000000000113, 26.499999999999996)"/><path d="M 0,0 L 140,0 L 140,9 A 5,5 0 0,1 135,14 L 5,14 A 5,5 0 0,1 0,9 z" fill="none" stroke="#373f47" stroke-width="1" stroke-linecap="butt" stroke-linejoin="miter" stroke-miterlimit="10" transform="matrix(1, 0, 0, 1, 1.0000000000000113, 26.499999999999996)"/></g><g transform="matrix(1, 0, 0, 1, 0, 0)" clip-path="url(#CLIP3208)"><text x="15" y="8.51220703125" style="font: 10px Roboto" text-anchor="middle" fill="black" stroke="none" transform="matrix(1, 0, 0, 1, 56.000000000000014, 28.919999999999998)">0</text></g></g></g></g></g></g></g><clipPath id="mainClip3167"><rect x="0" y="0" width="982" height="728"/></clipPath><clipPath id="CLIP3168"><path d="M 1.2,1.2 L 111.8,1.2 L 111.8,42 L 1.2,42 z" transform="matrix(1, 0, 0, 1, 0, 0)"/></clipPath><clipPath id="CLIP3169"><path d="M 41.5,28.919999999999998 L 71.5,28.919999999999998 L 71.5,38.92 L 41.5,38.92 z" transform="matrix(1, 0, 0, 1, 0, 0)"/></clipPath><clipPath id="CLIP3170"><path d="M 1.2,1.2 L 127.8,1.2 L 127.8,42 L 1.2,42 z" transform="matrix(1, 0, 0, 1, 0, 0)"/></clipPath><clipPath id="CLIP3171"><path d="M 49.5,28.919999999999998 L 79.5,28.919999999999998 L 79.5,38.92 L 49.5,38.92 z" transform="matrix(1, 0, 0, 1, 0, 0)"/></clipPath><clipPath id="CLIP3172"><path d="M 1.2,1.2 L 119.8,1.2 L 119.8,42 L 1.2,42 z" transform="matrix(1, 0, 0, 1, 0, 0)"/></clipPath><clipPath id="CLIP3173"><path d="M 45.5,28.919999999999998 L 75.5,28.919999999999998 L 75.5,38.92 L 45.5,38.92 z" transform="matrix(1, 0, 0, 1, 0, 0)"/></clipPath><clipPath id="CLIP3174"><path d="M 1.2,1.2 L 135.8,1.2 L 135.8,42 L 1.2,42 z" transform="matrix(1, 0, 0, 1, 0, 0)"/></clipPath><clipPath id="CLIP3175"><path d="M 53.500000000000014,28.919999999999998 L 83.50000000000001,28.919999999999998 L 83.50000000000001,38.92 L 53.500000000000014,38.92 z" transform="matrix(1, 0, 0, 1, 0, 0)"/></clipPath><clipPath id="CLIP3176"><path d="M 1.2,1.2 L 140.8,1.2 L 140.8,42 L 1.2,42 z" transform="matrix(1, 0, 0, 1, 0, 0)"/></clipPath><clipPath id="CLIP3177"><path d="M 56.000000000000014,28.919999999999998 L 86.00000000000001,28.919999999999998 L 86.00000000000001,38.92 L 56.000000000000014,38.92 z" transform="matrix(1, 0, 0, 1, 0, 0)"/></clipPath><clipPath id="CLIP3178"><path d="M 1.2,1.2 L 140.8,1.2 L 140.8,42 L 1.2,42 z" transform="matrix(1, 0, 0, 1, 0, 0)"/></clipPath><clipPath id="CLIP3179"><path d="M 56.000000000000014,28.919999999999998 L 86.00000000000001,28.919999999999998 L 86.00000000000001,38.92 L 56.000000000000014,38.92 z" transform="matrix(1, 0, 0, 1, 0, 0)"/></clipPath><clipPath id="CLIP3180"><path d="M 1.2,1.2 L 135.8,1.2 L 135.8,42 L 1.2,42 z" transform="matrix(1, 0, 0, 1, 0, 0)"/></clipPath><clipPath id="CLIP3181"><path d="M 53.500000000000014,28.919999999999998 L 83.50000000000001,28.919999999999998 L 83.50000000000001,38.92 L 53.500000000000014,38.92 z" transform="matrix(1, 0, 0, 1, 0, 0)"/></clipPath><clipPath id="CLIP3182"><path d="M 1.2,1.2 L 103.8,1.2 L 103.8,42 L 1.2,42 z" transform="matrix(1, 0, 0, 1, 0, 0)"/></clipPath><clipPath id="CLIP3183"><path d="M 37.5,28.919999999999998 L 67.5,28.919999999999998 L 67.5,38.92 L 37.5,38.92 z" transform="matrix(1, 0, 0, 1, 0, 0)"/></clipPath><clipPath id="CLIP3184"><path d="M 1.2,1.2 L 95.8,1.2 L 95.8,42 L 1.2,42 z" transform="matrix(1, 0, 0, 1, 0, 0)"/></clipPath><clipPath id="CLIP3185"><path d="M 33.5,28.919999999999998 L 63.5,28.919999999999998 L 63.5,38.92 L 33.5,38.92 z" transform="matrix(1, 0, 0, 1, 0, 0)"/></clipPath><clipPath id="CLIP3186"><path d="M 1.2,1.2 L 63.8,1.2 L 63.8,42 L 1.2,42 z" transform="matrix(1, 0, 0, 1, 0, 0)"/></clipPath><clipPath id="CLIP3187"><path d="M 17.499999999999996,28.919999999999998 L 47.5,28.919999999999998 L 47.5,38.92 L 17.499999999999996,38.92 z" transform="matrix(1, 0, 0, 1, 0, 0)"/></clipPath><clipPath id="CLIP3188"><path d="M 1.2,1.2 L 140.8,1.2 L 140.8,42 L 1.2,42 z" transform="matrix(1, 0, 0, 1, 0, 0)"/></clipPath><clipPath id="CLIP3189"><path d="M 56.000000000000014,28.919999999999998 L 86.00000000000001,28.919999999999998 L 86.00000000000001,38.92 L 56.000000000000014,38.92 z" transform="matrix(1, 0, 0, 1, 0, 0)"/></clipPath><clipPath id="CLIP3190"><path d="M 1.2,1.2 L 63.8,1.2 L 63.8,42 L 1.2,42 z" transform="matrix(1, 0, 0, 1, 0, 0)"/></clipPath><clipPath id="CLIP3191"><path d="M 17.499999999999996,28.919999999999998 L 47.5,28.919999999999998 L 47.5,38.92 L 17.499999999999996,38.92 z" transform="matrix(1, 0, 0, 1, 0, 0)"/></clipPath><clipPath id="CLIP3192"><path d="M 1.2,1.2 L 111.8,1.2 L 111.8,42 L 1.2,42 z" transform="matrix(1, 0, 0, 1, 0, 0)"/></clipPath><clipPath id="CLIP3193"><path d="M 41.5,28.919999999999998 L 71.5,28.919999999999998 L 71.5,38.92 L 41.5,38.92 z" transform="matrix(1, 0, 0, 1, 0, 0)"/></clipPath><clipPath id="CLIP3194"><path d="M 1.2,1.2 L 63.8,1.2 L 63.8,42 L 1.2,42 z" transform="matrix(1, 0, 0, 1, 0, 0)"/></clipPath><clipPath id="CLIP3195"><path d="M 17.499999999999996,28.919999999999998 L 47.5,28.919999999999998 L 47.5,38.92 L 17.499999999999996,38.92 z" transform="matrix(1, 0, 0, 1, 0, 0)"/></clipPath><clipPath id="CLIP3196"><path d="M 50,108 L 80,108 L 80,118 L 50,118 z" transform="matrix(1, 0, 0, 1, 0, 0)"/></clipPath><clipPath id="CLIP3197"><path d="M 50,108 L 80,108 L 80,118 L 50,118 z" transform="matrix(1, 0, 0, 1, 0, 0)"/></clipPath><clipPath id="CLIP3198"><path d="M 50,108 L 80,108 L 80,118 L 50,118 z" transform="matrix(1, 0, 0, 1, 0, 0)"/></clipPath><clipPath id="CLIP3199"><path d="M 50,108 L 80,108 L 80,118 L 50,118 z" transform="matrix(1, 0, 0, 1, 0, 0)"/></clipPath><clipPath id="CLIP3200"><path d="M 50,108 L 80,108 L 80,118 L 50,118 z" transform="matrix(1, 0, 0, 1, 0, 0)"/></clipPath><clipPath id="CLIP3201"><path d="M 50,108 L 80,108 L 80,118 L 50,118 z" transform="matrix(1, 0, 0, 1, 0, 0)"/></clipPath><clipPath id="CLIP3202"><path d="M 50,108 L 80,108 L 80,118 L 50,118 z" transform="matrix(1, 0, 0, 1, 0, 0)"/></clipPath><clipPath id="CLIP3203"><path d="M 50,108 L 80,108 L 80,118 L 50,118 z" transform="matrix(1, 0, 0, 1, 0, 0)"/></clipPath><clipPath id="CLIP3204"><path d="M 50,108 L 80,108 L 80,118 L 50,118 z" transform="matrix(1, 0, 0, 1, 0, 0)"/></clipPath><clipPath id="CLIP3205"><path d="M 1.2,1.2 L 127.8,1.2 L 127.8,42 L 1.2,42 z" transform="matrix(1, 0, 0, 1, 0, 0)"/></clipPath><clipPath id="CLIP3206"><path d="M 49.5,28.919999999999998 L 79.5,28.919999999999998 L 79.5,38.92 L 49.5,38.92 z" transform="matrix(1, 0, 0, 1, 0, 0)"/></clipPath><clipPath id="CLIP3207"><path d="M 1.2,1.2 L 140.8,1.2 L 140.8,42 L 1.2,42 z" transform="matrix(1, 0, 0, 1, 0, 0)"/></clipPath><clipPath id="CLIP3208"><path d="M 56.000000000000014,28.919999999999998 L 86.00000000000001,28.919999999999998 L 86.00000000000001,38.92 L 56.000000000000014,38.92 z" transform="matrix(1, 0, 0, 1, 0, 0)"/></clipPath></svg>